<svg xmlns="http://www.w3.org/2000/svg" xmlns:xlink="http://www.w3.org/1999/xlink" viewBox="0 0 508 508" xmlns:v="https://vecta.io/nano"><path d="M81.2 83.4h-4v337.2c27.6-1.2 39.6-17.6 39.6-37.6v-93.2-2-69.6-2V123v-2c.4-20.4-15.6-36.8-35.6-37.6z" fill="#33a5d2"/><path d="M77.6 420.2V114.6v-8V83c-20 1.2-35.6 17.6-35.6 37.6v69.2V313v69.2c-.4 20.8 15.6 37.2 35.6 38z" fill="#73badd"/><use xlink:href="#B" fill="#cdeef9"/><path d="M426.8 420.2V114.6 83c-20 1.2-35.6 17.6-35.6 37.6v95.2 71.6 95.2c-.4 20.4 15.6 36.8 35.6 37.6z" fill="#33a5d2"/><path d="M430.4 83.4h-4v337.2C454 419.4 466 403 466 383v-67.2-2-121.2-2-67.2-2c.4-20.8-15.6-37.2-35.6-38z" fill="#73badd"/><use xlink:href="#B" x="464.4" fill="#cdeef9"/><path d="M121.2 220.2h266v67.6h-266z" fill="#acd9ea"/><path d="M79.2 428.6c-24 0-43.6-19.6-43.6-43.6V123c0-24 19.6-43.6 43.6-43.6S122.8 99 122.8 123v262c.4 24-19.2 43.6-43.6 43.6zm0-341.6c-19.6 0-35.6 16-35.6 35.6v262c0 19.6 16 35.6 35.6 35.6s35.6-16 35.6-35.6v-262C115.2 103 99.2 87 79.2 87z"/><path d="M22 337c-12.4 0-22-9.6-22-21.6V192.2a21.51 21.51 0 0 1 21.6-21.6c12.4 0 22 9.6 22 21.6v123.2A21.51 21.51 0 0 1 22 337zm0-158.4c-8 0-14 6-14 13.6v123.2C8 323 14 329 21.6 329c8 0 14-6 14-13.6V192.2c0-7.6-6-13.6-13.6-13.6zm406.8 250c-24 0-43.6-19.6-43.6-43.6V123c0-24 19.6-43.6 43.6-43.6S472.4 99 472.4 123v262c0 24-19.6 43.6-43.6 43.6zm0-341.6c-19.6 0-35.6 16-35.6 35.6v262c0 19.6 16 35.6 35.6 35.6s35.6-16 35.6-35.6v-262c0-19.6-16-35.6-35.6-35.6z"/><path d="M486.4 337c-12.4 0-22-9.6-22-21.6V192.2a21.51 21.51 0 0 1 21.6-21.6c12.4 0 22 9.6 22 21.6v123.2a21.51 21.51 0 0 1-21.6 21.6zm0-158.4c-8 0-14 6-14 13.6v123.2c0 7.6 6 13.6 13.6 13.6 8 0 14-6 14-13.6V192.2c0-7.6-6-13.6-13.6-13.6zm-97.6 114.8h-270c-2.4 0-4-1.6-4-4v-71.6c0-2.4 1.6-4 4-4h270c2.4 0 4 1.6 4 4v71.6c0 2.4-1.6 4-4 4zm-265.6-8h262v-63.6h-262v63.6zm-44 141.2c-2.4 0-4-1.6-4-4v-270c0-2.4 1.6-4 4-4s4 1.6 4 4v270c0 2-1.6 4-4 4zm0-305.6c-2.4 0-4-1.6-4-4V85.4c0-2.4 1.6-4 4-4s4 1.6 4 4V117c0 2-1.6 4-4 4zm349.6 305.6c-2.4 0-4-1.6-4-4v-270c0-2.4 1.6-4 4-4s4 1.6 4 4v270c0 2-2 4-4 4zm0-305.6c-2.4 0-4-1.6-4-4V85.4c0-2.4 1.6-4 4-4s4 1.6 4 4V117c0 2-2 4-4 4z"/><defs ><path id="B" d="M22.8 174.6h-1.6c-8.4.4-15.6 7.2-15.6 15.6v123.2c0 8.8 9.2 17.6 17.6 17.6h.4c8.8 0 13.6-9.2 13.6-17.6V192.2v-2c.4-8.8-5.6-15.6-14.4-15.6z"/></defs></svg>